<?xml version="1.0" encoding="UTF-8" standalone="no"?>
<svg
   width="900"
   height="200"
   preserveAspectRatio="xMidYMid meet"
   version="1.0"
   id="svg220"
   sodipodi:docname="financial-logo.svg"
   inkscape:version="1.2.2 (b0a8486541, 2022-12-01)"
   xmlns:inkscape="http://www.inkscape.org/namespaces/inkscape"
   xmlns:sodipodi="http://sodipodi.sourceforge.net/DTD/sodipodi-0.dtd"
   xmlns="http://www.w3.org/2000/svg"
   xmlns:svg="http://www.w3.org/2000/svg">
  <sodipodi:namedview
     id="namedview222"
     pagecolor="#ffffff"
     bordercolor="#000000"
     borderopacity="0.25"
     inkscape:showpageshadow="2"
     inkscape:pageopacity="0.0"
     inkscape:pagecheckerboard="0"
     inkscape:deskcolor="#d1d1d1"
     showgrid="false"
     inkscape:zoom="1.3622222"
     inkscape:cx="450"
     inkscape:cy="99.836868"
     inkscape:window-width="1366"
     inkscape:window-height="703"
     inkscape:window-x="0"
     inkscape:window-y="28"
     inkscape:window-maximized="1"
     inkscape:current-layer="g218" />
  <defs
     id="defs176">
    <linearGradient
       gradientTransform="matrix(0.23672179877758026,0,0,0.14747776091098785,-72.555908203125,62.011322021484375)"
       y2="128.0113"
       x2="501.2197"
       y1="128.0113"
       x1="250.6101"
       gradientUnits="userSpaceOnUse"
       id="svg_12">
      <stop
         stop-color="#FBFBFC"
         offset="0.0918"
         id="stop151" />
      <stop
         stop-color="#E6E1DF"
         offset="1"
         id="stop153" />
    </linearGradient>
    <linearGradient
       gradientTransform="matrix(0.23672179877758026,0,0,0.14747776091098785,-72.555908203125,62.011322021484375)"
       y2="128.0113"
       x2="250.6101"
       y1="128.0113"
       x1="0"
       gradientUnits="userSpaceOnUse"
       id="svg_11">
      <stop
         stop-color="#FBFBFC"
         offset="0.0918"
         id="stop156" />
      <stop
         stop-color="#E6E1DF"
         offset="1"
         id="stop158" />
    </linearGradient>
    <linearGradient
       gradientTransform="matrix(0.23672179877758026,0,0,0.14747776091098785,-72.555908203125,62.011322021484375)"
       y2="384.0052"
       x2="501.2233"
       y1="384.0052"
       x1="-0.0365"
       gradientUnits="userSpaceOnUse"
       id="svg_10">
      <stop
         stop-color="#DE551A"
         offset="0.0338"
         id="stop161" />
      <stop
         stop-color="#DD5121"
         offset="1"
         id="stop163" />
    </linearGradient>
    <linearGradient
       gradientTransform="matrix(0.23672179877758026,0,0,0.14747776091098785,-72.555908203125,62.011322021484375)"
       y2="383.9925"
       x2="250.6101"
       y1="383.9925"
       x1="0"
       gradientUnits="userSpaceOnUse"
       id="svg_9">
      <stop
         stop-color="#FBFBFC"
         offset="0.0918"
         id="stop166" />
      <stop
         stop-color="#E6E1DF"
         offset="1"
         id="stop168" />
    </linearGradient>
    <linearGradient
       gradientTransform="matrix(0.23672179877758026,0,0,0.14747776091098785,-72.555908203125,62.011322021484375)"
       y2="384.032"
       x2="413.1875"
       y1="384.032"
       x1="338.6428"
       gradientUnits="userSpaceOnUse"
       id="svg_8">
      <stop
         stop-color="#FFFFFF"
         offset="0.0338"
         id="stop171" />
      <stop
         stop-color="#DD5121"
         offset="1"
         id="stop173" />
    </linearGradient>
  </defs>
  <g
     id="g218">
    <title
       id="title178">Layer 1</title>
    <g
       id="svg_1"
       fill="#000000"
       transform="translate(0.000000,200.000000) scale(0.100000,-0.100000)">
      <path
         id="svg_2"
         d="m960,1505l0,-495l-480,0c-313,0 -480,-3 -480,-10c0,-7 166,-10 479,-10l480,0l6,-42c4,-24 5,-245 3,-493l-3,-450l439,3c484,3 484,3 529,66c22,31 22,34 25,483l3,453l-486,0l-485,0l0,495c0,433 -2,495 -15,495c-13,0 -15,-62 -15,-495zm650,-935l0,-30l-150,0l-150,0l0,30l0,30l150,0l150,0l0,-30zm0,-130l0,-30l-105,-2c-210,-4 -190,-7 -193,30l-3,32l150,0l151,0l0,-30z" />
      <path
         id="svg_3"
         d="m3330,1687c-77,-18 -119,-20 -430,-21c-333,-1 -347,-2 -415,-24c-156,-52 -271,-145 -294,-236c-14,-55 -14,-71 -1,-118c19,-66 73,-103 195,-134c29,-7 29,-7 -15,-15c-79,-15 -132,-49 -157,-99c-11,-25 -23,-64 -26,-87c-5,-41 -4,-43 21,-42c15,0 52,4 82,8c30,5 57,7 59,5c2,-1 -14,-42 -35,-91c-49,-116 -90,-237 -98,-296c-8,-56 13,-144 42,-170c26,-23 87,-43 160,-52l62,-7l0,55c0,87 27,208 91,403l59,182l128,3c106,3 133,7 162,25c33,19 130,128 130,146c0,4 -46,8 -102,8c-126,0 -238,10 -238,21c0,5 26,74 57,155l58,146l100,-8c209,-15 226,-9 417,162c59,53 108,99 108,101c0,6 -36,1 -120,-20zm-749,-260c-11,-18 -42,-80 -69,-138l-49,-104l-18,40c-26,58 -32,158 -11,190c18,28 61,43 124,44l44,1l-21,-33z" />
      <path
         id="svg_4"
         d="m8164,1641c-142,-102 -392,-498 -494,-781c-38,-105 -85,-172 -166,-232c-82,-63 -85,-47 -14,67c28,44 50,90 50,102c0,12 10,38 21,58c27,46 22,118 -11,165c-57,79 -229,107 -353,56c-144,-60 -277,-175 -359,-312c-51,-86 -107,-147 -151,-163c-47,-18 -57,-14 -57,22c0,44 36,118 113,230c72,106 84,137 66,179c-22,53 -115,76 -178,44c-38,-20 -132,-123 -157,-173l-20,-42l0,47c0,28 -9,64 -22,88c-97,188 -460,69 -593,-193c-19,-37 -50,-88 -69,-114c-36,-48 -100,-107 -100,-92c0,4 16,46 35,93c42,102 44,155 11,226c-34,73 -74,98 -161,102c-89,5 -136,-8 -212,-57c-58,-37 -60,-38 -69,-17c-5,11 -26,29 -47,40c-49,23 -108,16 -169,-23c-44,-28 -45,-31 -50,-88c-3,-33 -13,-74 -22,-91c-34,-66 -185,-207 -202,-189c-7,6 25,67 65,127c17,25 31,58 31,74c0,16 8,38 17,48c10,11 18,41 21,76c3,47 0,63 -20,92c-68,103 -260,121 -419,40c-115,-59 -249,-191 -313,-309c-35,-63 -120,-160 -131,-149c-3,2 11,41 31,86c42,98 48,176 16,238c-40,79 -87,104 -190,104c-69,0 -137,-24 -202,-70c-35,-25 -47,-25 -55,-1c-18,56 -141,63 -212,12c-34,-25 -40,-34 -50,-93c-6,-36 -19,-82 -28,-103c-25,-51 -113,-145 -152,-162c-51,-21 -63,-17 -63,20c0,44 36,118 113,230c72,106 84,137 66,179c-22,53 -115,76 -178,44c-48,-25 -134,-129 -173,-207c-112,-232 -102,-383 30,-441c59,-27 174,-22 246,10c46,21 52,21 90,8c23,-8 60,-17 84,-19l42,-5l86,115c47,63 104,135 127,160c71,77 167,128 167,88c0,-8 -12,-49 -26,-92c-43,-131 -24,-205 66,-251c55,-28 143,-29 219,-3l54,19l44,-34c50,-38 93,-49 168,-41c57,6 115,31 164,72l31,27l35,-31c19,-16 51,-33 70,-37c64,-12 158,0 213,27c49,24 52,25 84,9c18,-10 56,-20 84,-23l51,-6l74,102c119,165 234,277 284,277c26,0 26,-4 -16,-142c-19,-66 -21,-82 -11,-115c15,-50 64,-100 110,-113c83,-23 212,-1 262,45c17,15 21,13 68,-34c38,-38 63,-54 108,-67c116,-33 262,-4 386,79l52,35l32,-28c18,-15 49,-33 70,-40c56,-19 169,-8 236,22l56,26l28,-29c41,-43 102,-63 177,-57c67,6 110,23 169,70l37,29l21,-21c34,-34 88,-52 156,-51c69,0 124,19 200,67l51,32l28,-35c89,-112 287,-93 420,41c53,52 175,229 175,252c0,6 -33,25 -72,43c-82,36 -70,42 -128,-61c-44,-77 -130,-168 -160,-168c-21,0 -22,3 -18,78l4,77l120,120c165,165 282,341 348,523c40,112 31,203 -25,263c-38,41 -109,41 -165,0zm-3464,-723c0,-40 -224,-293 -292,-329c-50,-27 6,111 86,213c52,65 101,105 153,124c51,18 53,17 53,-8zm2660,1c0,-44 -272,-339 -313,-339c-13,0 4,52 41,124c57,109 152,203 230,226c40,12 42,12 42,-11zm-1140,-23c0,-2 -8,-10 -17,-17c-16,-13 -17,-12 -4,4c13,16 21,21 21,13zm10,-139c38,-26 110,-22 154,8c20,13 36,21 36,16c0,-4 -17,-34 -38,-67c-54,-82 -127,-135 -219,-159c-67,-18 -101,-11 -114,22c-16,43 19,150 74,225l21,28l30,-28c17,-16 42,-36 56,-45z" />
      <path
         id="svg_5"
         d="m3320,1360c-95,-19 -160,-74 -160,-136c0,-49 14,-71 60,-94c54,-28 115,-26 178,6c158,79 96,259 -78,224z" />
      <path
         id="svg_6"
         d="m6820,1360c-95,-19 -160,-74 -160,-136c0,-49 14,-71 60,-94c54,-28 115,-26 178,6c158,79 96,259 -78,224z" />
    </g>
    <g
       stroke="null"
       id="g216">
      <g
         stroke="null"
         id="g214">
        <path
           stroke="null"
           fill="url(#svg_12)"
           d="m197.61035,16.86107l0,82.14774l-97.11092,0l0,-98.00881l81.0561,0c1.97159,0 3.88079,0.34032 5.63306,1.02058c4.35005,1.60781 7.79259,5.0091 9.38869,9.27516c0.65758,1.73146 1.03307,3.6172 1.03307,5.56533z"
           id="path186" />
        <path
           stroke="null"
           fill="url(#svg_11)"
           d="m100.49943,1l0,98.00881l-97.11092,0l0,-82.14774c0,-8.74995 7.19817,-15.86107 16.05483,-15.86107l81.0561,0z"
           id="path188" />
        <path
           stroke="null"
           fill="url(#svg_10)"
           d="m197.61151,99.00383l0,82.14008c0,8.76755 -7.18809,15.85609 -16.05018,15.85609l-81.0685,0l0,-97.99617l97.11867,0z"
           id="path190" />
        <path
           stroke="null"
           fill="url(#svg_9)"
           d="m100.49943,99.0088l0,97.97703l-81.0561,0c-2.22191,0 -4.31867,-0.43334 -6.22787,-1.23648c-3.88079,-1.60781 -6.97884,-4.69941 -8.60633,-8.50227c-0.78236,-1.8865 -1.22062,-3.92651 -1.22062,-6.0917l0,-82.14659l97.11092,0z"
           id="path192" />
        <polygon
           stroke="null"
           fill="#FFFFFF"
           points="56.147926330566406,46.119049072265625 56.147926330566406,33.929527282714844 47.741947174072266,33.929527282714844 47.741947174072266,46.119049072265625 35.12033462524414,46.119049072265625 35.12033462524414,53.80515670776367 47.741947174072266,53.80515670776367 47.741947174072266,66.09534454345703 56.147926330566406,66.09534454345703 56.147926330566406,53.80515670776367 68.77069854736328,53.80515670776367 68.77069854736328,46.119049072265625 "
           id="polygon194" />
        <rect
           stroke="null"
           fill="#FFFFFF"
           height="8.31545"
           width="25.48382"
           y="45.85414"
           x="136.31085"
           id="rect196" />
        <polygon
           stroke="null"
           fill="#FFFFFF"
           points="66.96495819091797,138.63258361816406 61.780609130859375,133.69200134277344 51.94473648071289,143.06784057617188 42.11042022705078,133.69200134277344 36.92608642578125,138.63258361816406 46.76079177856445,148.00804138183594 36.92608642578125,157.38121032714844 42.11042022705078,162.32406616210938 51.94473648071289,152.94862365722656 61.780609130859375,162.32406616210938 66.96495819091797,157.38121032714844 57.12908172607422,148.00804138183594 "
           id="polygon198" />
        <path
           stroke="null"
           fill="url(#svg_8)"
           opacity="0.4"
           d="m134.61205,151.93876l0,5.37966l28.88605,0l0,-5.37966l-28.88605,0zm0,-13.23268l0,5.37966l28.88605,0l0,-5.37966l-28.88605,0z"
           id="path200" />
        <rect
           stroke="null"
           y="1"
           fill="#4D4C4C"
           height="195.98546"
           width="2.50363"
           x="99.24742"
           id="rect202" />
        <rect
           stroke="null"
           x="3.3885"
           fill="#4D4C4C"
           height="2.47373"
           width="194.22184"
           y="97.77155"
           id="rect204" />
        <path
           stroke="null"
           fill="#FFFFFF"
           d="m133.8607,151.47517l0,5.34866l28.91744,0l0,-5.34866l-28.91744,0zm0,-13.23268l0,5.37966l28.91744,0l0,-5.37966l-28.91744,0z"
           id="path206" />
        <polygon
           stroke="null"
           fill="#979696"
           points="55.41362380981445,45.652400970458984 55.41362380981445,33.4628791809082 47.00761795043945,33.4628791809082 47.00761795043945,45.652400970458984 34.38603210449219,45.652400970458984 34.38603210449219,53.338890075683594 47.00761795043945,53.338890075683594 47.00761795043945,65.62908935546875 55.41362380981445,65.62908935546875 55.41362380981445,53.338890075683594 68.03636932373047,53.338890075683594 68.03636932373047,45.652400970458984 "
           id="polygon208" />
        <rect
           stroke="null"
           fill="#979696"
           height="8.31545"
           width="25.48382"
           y="45.38787"
           x="135.57654"
           id="rect210" />
        <polygon
           stroke="null"
           fill="#979696"
           points="66.23062896728516,138.1663055419922 61.04630661010742,133.22573852539062 51.21043395996094,142.60157775878906 41.37611770629883,133.22573852539062 36.192169189453125,138.1663055419922 46.02647399902344,147.54177856445312 36.192169189453125,156.91494750976562 41.37611770629883,161.85781860351562 51.21043395996094,152.48236083984375 61.04630661010742,161.85781860351562 66.23062896728516,156.91494750976562 56.394779205322266,147.54177856445312 "
           id="polygon212" />
      </g>
    </g>
    <path
       style="fill:#ac9393;stroke-width:0.734095"
       d="m 241.17865,168.02519 c -10.97376,-1.59875 -15.51161,-4.15953 -17.77762,-10.0322 -3.06646,-7.94715 -1.06605,-18.06855 7.86547,-39.7967 2.00408,-4.87542 3.64378,-9.39162 3.64378,-10.03601 0,-0.96785 -0.60644,-1.09784 -3.48695,-0.74744 -11.95675,1.45451 -11.89053,1.4536 -12.38347,0.16901 -0.73496,-1.91527 1.86011,-10.374786 4.15401,-13.541415 2.34361,-3.235262 7.82296,-6.210984 13.73517,-7.459291 2.1197,-0.447554 3.85234,-1.034117 3.85032,-1.303475 -0.002,-0.269357 -2.63251,-1.277409 -5.84553,-2.240115 -3.21303,-0.962706 -7.45663,-2.837821 -9.43024,-4.166922 -4.93148,-3.321055 -6.37635,-6.471505 -6.37635,-13.903258 0,-5.02963 0.27895,-6.347017 1.94296,-9.176183 4.59908,-7.819378 14.60383,-15.007731 26.89058,-19.320727 l 6.403,-2.247635 36.33769,-0.541014 c 35.08527,-0.522367 36.61579,-0.604195 44.40689,-2.374174 4.43808,-1.008238 8.1668,-1.735582 8.28606,-1.616319 0.36152,0.361519 -13.04861,12.759442 -18.9246,17.496153 -3.02814,2.441025 -7.32259,5.292876 -9.54323,6.337448 -3.74169,1.760063 -4.76366,1.895698 -13.9478,1.85115 -5.45065,-0.02644 -11.9217,-0.284579 -14.38011,-0.573644 l -4.46983,-0.525574 -5.62397,14.65621 c -3.09318,8.060915 -5.62397,15.135153 -5.62397,15.720528 0,1.54218 2.50154,1.885264 17.25123,2.365993 7.26753,0.236868 13.97597,0.585977 14.90763,0.775799 1.69155,0.344647 1.69054,0.349486 -0.71438,3.440453 -1.32456,1.702426 -4.29616,4.966516 -6.60355,7.253534 -5.00761,4.963388 -6.67792,5.428458 -22.56867,6.283938 l -10.5744,0.56927 -1.02696,2.93638 c -3.52257,10.07201 -9.95313,31.66625 -11.54951,38.78399 -1.03509,4.61514 -2.0958,11.40339 -2.35712,15.08499 -0.29695,4.18343 -0.77805,6.66025 -1.28284,6.60431 -0.44423,-0.0493 -2.77689,-0.37641 -5.18369,-0.72706 z M 251.7757,70.931263 c 2.76316,-5.804281 5.87983,-11.909055 6.92591,-13.566162 1.04609,-1.657108 1.90198,-3.233622 1.90198,-3.503364 0,-0.864559 -11.65171,0.37505 -13.75663,1.463549 -4.6134,2.385685 -5.9013,6.608229 -4.56565,14.969087 0.75793,4.74443 3.07014,11.190129 4.01414,11.190129 0.25096,0 2.71708,-4.748957 5.48025,-10.553239 z"
       id="path664" />
    <path
       style="fill:#ac9393;stroke-width:0.734095"
       d="m 676.46819,88.166344 c -11.57962,-2.962714 -13.47295,-13.306401 -3.66061,-19.998792 3.30151,-2.251761 9.84089,-4.309358 13.61905,-4.285198 3.3736,0.02157 8.14245,2.269397 10.10334,4.762267 1.89724,2.411949 2.14407,7.44453 0.51923,10.58661 -3.08967,5.974769 -13.86592,10.653208 -20.58101,8.935113 z"
       id="path672" />
    <path
       style="fill:#ac9393;stroke-width:0.734095"
       d="m 599.95329,162.92932 c -5.19483,-1.02529 -9.37474,-3.28214 -14.06516,-7.59419 -2.45984,-2.2614 -4.79098,-4.11164 -5.18031,-4.11164 -0.38933,0 -1.9356,0.83315 -3.43615,1.85146 -4.07745,2.76703 -10.09471,4.27782 -16.95532,4.25707 -7.61097,-0.0231 -11.79888,-1.93874 -15.49886,-7.08976 -3.65808,-5.09268 -3.72952,-7.80457 -0.51068,-19.38651 1.48323,-5.33693 2.48892,-10.03985 2.23486,-10.45092 -0.82395,-1.33317 -3.68453,-0.79421 -7.02193,1.323 -5.26159,3.33788 -13.45426,12.1622 -22.61353,24.357 l -8.54614,11.37847 -3.89073,-0.4749 c -2.13991,-0.26118 -5.85227,-1.20845 -8.2497,-2.10503 l -4.35896,-1.63014 -4.59674,1.91286 c -5.99247,2.49367 -10.10301,3.3584 -16.06907,3.3804 -5.65377,0.0208 -8.73748,-1.09231 -13.08272,-4.72267 l -3.12998,-2.61502 -2.46191,2.16159 c -5.77525,5.07073 -13.70385,8.15431 -20.82234,8.09821 -5.12397,-0.0404 -8.47419,-1.22337 -13.11737,-4.63177 -2.00571,-1.47233 -4.02893,-2.67696 -4.49604,-2.67696 -0.46711,0 -3.06559,0.718 -5.7744,1.59556 -5.61766,1.81993 -14.38793,2.16839 -18.57096,0.73787 -3.72701,-1.27457 -7.3674,-4.14225 -9.29017,-7.31824 -2.36998,-3.91469 -2.18592,-9.41922 0.64329,-19.23802 3.18546,-11.0552 2.36205,-12.30585 -5.23583,-7.95242 -5.69615,3.26378 -11.5187,9.42862 -21.89546,23.18259 -10.29025,13.63931 -9.19649,13.05807 -19.49128,10.35799 l -5.99006,-1.57105 -5.8512,2.01956 c -7.69736,2.65677 -15.46381,3.20999 -21.31913,1.5186 -7.99745,-2.31018 -12.81964,-9.14745 -12.80498,-18.15588 0.013,-8.00331 5.38479,-23.15669 11.37269,-32.0815 4.09712,-6.10665 10.31823,-12.696772 13.63541,-14.444205 5.07239,-2.672044 12.65562,-1.21845 16.03124,3.072955 3.06674,3.898731 2.10566,6.66593 -7.45134,21.45443 -6.43273,9.954 -9.36802,16.31871 -9.36802,20.31308 0,3.05131 1.04164,3.67611 4.91668,2.94914 1.99805,-0.37482 4.10551,-1.86675 8.07768,-5.71834 7.40941,-7.18451 9.37671,-10.52627 11.50939,-19.55043 1.36184,-5.76245 2.27084,-8.06875 3.81578,-9.68131 5.69343,-5.942672 19.06241,-6.289545 22.01942,-0.57132 1.36601,2.64158 2.36486,2.62991 6.76746,-0.079 7.00199,-4.30837 11.71203,-6.02318 17.66432,-6.431159 7.98736,-0.547466 12.91307,0.966548 16.77484,5.156059 6.50119,7.05296 6.99708,15.01765 1.78083,28.60267 -3.44903,8.98256 -3.36299,8.6187 -2.03811,8.6187 1.73626,0 8.0918,-7.42098 13.83138,-16.15009 15.19804,-23.11411 34.65616,-35.705499 53.00244,-34.297971 8.87429,0.680836 14.69958,3.573014 18.79147,9.329722 1.52524,2.145789 1.79894,3.313619 1.69059,7.213399 -0.0852,3.0652 -0.64684,5.64602 -1.64586,7.5627 -0.83411,1.60027 -1.85077,4.40088 -2.25925,6.22357 -0.40847,1.82269 -2.54041,6.29602 -4.73764,9.94075 -5.65794,9.38525 -5.96793,10.81693 -2.13375,9.85461 2.6001,-0.65258 16.47066,-14.59974 18.19058,-18.29106 0.72558,-1.55722 1.7491,-5.51603 2.2745,-8.79734 0.85159,-5.31858 1.22052,-6.18745 3.39958,-8.00661 2.64169,-2.20539 9.23813,-4.95941 11.86294,-4.95279 3.40421,0.009 7.21619,1.62573 9.58735,4.06724 1.35435,1.39453 2.7304,2.53551 3.05788,2.53551 0.32748,0 3.10202,-1.46054 6.16565,-3.24566 7.68766,-4.47944 12.87805,-5.868551 19.9035,-5.326787 9.04152,0.697232 12.30959,2.672817 16.00239,9.673597 1.63034,3.09078 1.9339,4.59796 1.92211,9.54323 -0.0123,5.14335 -0.40915,6.90251 -3.19553,14.16384 -1.74985,4.5601 -2.97445,8.49818 -2.72134,8.75129 1.60105,1.60105 11.43996,-10.01785 16.59732,-19.59997 5.98917,-11.12761 14.25758,-19.41471 24.46927,-24.524549 19.79983,-9.907664 35.03941,-4.574848 37.09659,12.981279 l 0.53406,4.55763 1.71102,-3.30342 c 2.21969,-4.28551 9.04833,-12.662027 12.85544,-15.76944 3.48661,-2.845818 7.99996,-4.249828 11.5154,-3.5822 7.44824,1.414517 10.89833,6.41103 8.45865,12.25002 -0.61564,1.47342 -3.78955,6.80148 -7.05313,11.84012 -7.72181,11.92169 -10.29745,17.39212 -10.29819,21.87243 -5.7e-4,3.39527 0.0581,3.48695 2.23095,3.48695 5.50054,0 11.36331,-5.29965 19.41569,-17.5508 8.27299,-12.58678 17.66823,-21.39076 29.7514,-27.879087 7.66428,-4.115509 13.50498,-5.495733 21.27675,-5.027944 12.12419,0.729765 19.56241,5.385284 21.34733,13.361091 0.79521,3.55338 0.76095,4.64209 -0.23894,7.5923 -3.22818,9.52494 -5.00167,13.59728 -8.84287,20.30532 -2.30476,4.02491 -4.19048,7.74126 -4.19048,8.25857 0,1.91175 2.7374,0.83709 7.42125,-2.91345 8.76382,-7.01754 11.8925,-11.63961 17.51609,-25.87684 10.10074,-25.57206 29.55429,-57.160738 43.43912,-70.536461 8.80003,-8.477358 14.90928,-9.686574 20.53193,-4.063922 5.37103,5.371025 6.25588,13.966219 2.55729,24.840541 -6.0724,17.853596 -17.35829,34.6331 -36.30451,53.976402 l -10.60123,10.82342 -0.0736,7.87699 c -0.066,7.06496 0.0642,7.90444 1.26301,8.14336 3.35637,0.66887 11.49375,-7.76289 18.05173,-18.70476 2.3043,-3.84469 3.95502,-5.82316 4.98389,-5.97349 1.54546,-0.2258 9.71358,3.20082 12.19023,5.11395 1.24055,0.95828 0.93715,1.61383 -4.71139,10.18009 -8.0443,12.19955 -15.36985,19.57284 -23.12492,23.27562 -5.50033,2.62621 -6.15678,2.76441 -13.13073,2.76441 -8.73387,0 -11.43058,-1.05008 -16.59091,-6.46037 l -3.39251,-3.55685 -6.52542,3.74623 c -7.88939,4.52928 -12.22446,5.90525 -18.58769,5.89985 -6.29887,-0.005 -9.93163,-1.06536 -14.09644,-4.11326 -1.87097,-1.36922 -3.61944,-2.48949 -3.88549,-2.48949 -0.26605,0 -2.2189,1.31007 -4.33967,2.91127 -6.61903,4.99741 -10.1491,6.2144 -18.10389,6.24131 -7.92172,0.0268 -10.12194,-0.78678 -15.09805,-5.58287 l -2.98548,-2.87747 -4.1145,1.88368 c -5.74981,2.63235 -13.92087,4.22993 -19.64536,3.84101 -5.01517,-0.34074 -9.16459,-2.02134 -13.03813,-5.2807 -1.22251,-1.02868 -2.59173,-1.87033 -3.04271,-1.87033 -0.45097,0 -2.80989,1.35833 -5.24205,3.0185 -10.62404,7.2519 -24.64578,10.73179 -35.00441,8.68733 z m 14.6313,-17.66749 c 5.41891,-1.14644 12.09921,-4.31448 15.97455,-7.57573 5.14977,-4.33372 12.84106,-15.00369 11.6638,-16.18094 -0.22688,-0.22688 -2.31058,0.58594 -4.63044,1.80626 -4.38196,2.30504 -8.87523,2.86696 -12.35278,1.54479 -0.97497,-0.37068 -3.84079,-2.39507 -6.36851,-4.49866 l -4.59585,-3.82471 -1.72608,2.11286 c -3.01948,3.69608 -7.02764,12.6096 -7.86292,17.48588 -0.92366,5.39232 -0.16502,8.08803 2.58744,9.19407 2.22927,0.8958 2.79836,0.89083 7.31079,-0.0638 z m 96.42343,-7.20852 c 7.6712,-6.55807 21.6591,-22.32752 24.26198,-27.35209 0.5648,-1.09027 1.0269,-2.70069 1.0269,-3.57871 0,-1.40712 -0.2808,-1.54025 -2.3682,-1.12277 -9.57443,1.91488 -21.84823,14.40127 -27.7203,28.20043 -2.37791,5.58802 -2.77968,8.21419 -1.25666,8.21419 0.52525,0 3.25057,-1.96248 6.05628,-4.36105 z m -265.84409,0.28088 c 5.18496,-4.22363 17.10822,-17.39049 21.80748,-24.08199 5.39507,-7.68231 4.70376,-9.7707 -2.35581,-7.11678 -9.36028,3.51882 -20.20594,15.94645 -24.92586,28.56156 -2.58664,6.91344 -0.82008,7.76449 5.47419,2.63721 z m 176.25124,-26.75631 c 0.73302,-0.80998 1.11658,-1.68886 0.85237,-1.95309 -0.53532,-0.53532 -3.42578,1.83175 -3.42578,2.80546 0,1.07168 1.18838,0.67806 2.57341,-0.85237 z"
       id="path674" />
    <path
       style="fill:#ac9393;stroke-width:0.734095"
       d="m 324.57166,87.447284 c -5.43812,-1.91774 -7.56426,-4.223405 -7.97673,-8.650276 -0.4264,-4.576246 1.62377,-7.774647 7.07988,-11.045078 10.25469,-6.146738 21.59936,-4.318419 24.31799,3.919109 1.69488,5.135546 -2.75004,11.865766 -9.90493,14.99742 -4.81765,2.108654 -9.05316,2.35271 -13.51621,0.778825 z"
       id="path676" />
  </g>
</svg>
