<svg width="900" height="200" xmlns="http://www.w3.org/2000/svg" preserveAspectRatio="xMidYMid meet" version="1.0">
 <defs>
  <linearGradient gradientTransform="matrix(0.23672179877758026,0,0,0.14747776091098785,-72.555908203125,62.011322021484375)" y2="128.0113" x2="501.2197" y1="128.0113" x1="250.6101" gradientUnits="userSpaceOnUse" id="svg_12">
   <stop stop-color="#FBFBFC" offset="0.0918"/>
   <stop stop-color="#E6E1DF" offset="1"/>
  </linearGradient>
  <linearGradient gradientTransform="matrix(0.23672179877758026,0,0,0.14747776091098785,-72.555908203125,62.011322021484375)" y2="128.0113" x2="250.6101" y1="128.0113" x1="0" gradientUnits="userSpaceOnUse" id="svg_11">
   <stop stop-color="#FBFBFC" offset="0.0918"/>
   <stop stop-color="#E6E1DF" offset="1"/>
  </linearGradient>
  <linearGradient gradientTransform="matrix(0.23672179877758026,0,0,0.14747776091098785,-72.555908203125,62.011322021484375)" y2="384.0052" x2="501.2233" y1="384.0052" x1="-0.0365" gradientUnits="userSpaceOnUse" id="svg_10">
   <stop stop-color="#DE551A" offset="0.0338"/>
   <stop stop-color="#DD5121" offset="1"/>
  </linearGradient>
  <linearGradient gradientTransform="matrix(0.23672179877758026,0,0,0.14747776091098785,-72.555908203125,62.011322021484375)" y2="383.9925" x2="250.6101" y1="383.9925" x1="0" gradientUnits="userSpaceOnUse" id="svg_9">
   <stop stop-color="#FBFBFC" offset="0.0918"/>
   <stop stop-color="#E6E1DF" offset="1"/>
  </linearGradient>
  <linearGradient gradientTransform="matrix(0.23672179877758026,0,0,0.14747776091098785,-72.555908203125,62.011322021484375)" y2="384.032" x2="413.1875" y1="384.032" x1="338.6428" gradientUnits="userSpaceOnUse" id="svg_8">
   <stop stop-color="#FFFFFF" offset="0.0338"/>
   <stop stop-color="#DD5121" offset="1"/>
  </linearGradient>
 </defs>
 <g>
  <title>Layer 1</title>
  <g id="svg_1" fill="#000000" transform="translate(0.000000,200.000000) scale(0.100000,-0.100000)">
   <path id="svg_2" d="m960,1505l0,-495l-480,0c-313,0 -480,-3 -480,-10c0,-7 166,-10 479,-10l480,0l6,-42c4,-24 5,-245 3,-493l-3,-450l439,3c484,3 484,3 529,66c22,31 22,34 25,483l3,453l-486,0l-485,0l0,495c0,433 -2,495 -15,495c-13,0 -15,-62 -15,-495zm650,-935l0,-30l-150,0l-150,0l0,30l0,30l150,0l150,0l0,-30zm0,-130l0,-30l-105,-2c-210,-4 -190,-7 -193,30l-3,32l150,0l151,0l0,-30z"/>
   <path id="svg_3" d="m3330,1687c-77,-18 -119,-20 -430,-21c-333,-1 -347,-2 -415,-24c-156,-52 -271,-145 -294,-236c-14,-55 -14,-71 -1,-118c19,-66 73,-103 195,-134c29,-7 29,-7 -15,-15c-79,-15 -132,-49 -157,-99c-11,-25 -23,-64 -26,-87c-5,-41 -4,-43 21,-42c15,0 52,4 82,8c30,5 57,7 59,5c2,-1 -14,-42 -35,-91c-49,-116 -90,-237 -98,-296c-8,-56 13,-144 42,-170c26,-23 87,-43 160,-52l62,-7l0,55c0,87 27,208 91,403l59,182l128,3c106,3 133,7 162,25c33,19 130,128 130,146c0,4 -46,8 -102,8c-126,0 -238,10 -238,21c0,5 26,74 57,155l58,146l100,-8c209,-15 226,-9 417,162c59,53 108,99 108,101c0,6 -36,1 -120,-20zm-749,-260c-11,-18 -42,-80 -69,-138l-49,-104l-18,40c-26,58 -32,158 -11,190c18,28 61,43 124,44l44,1l-21,-33z"/>
   <path id="svg_4" d="m8164,1641c-142,-102 -392,-498 -494,-781c-38,-105 -85,-172 -166,-232c-82,-63 -85,-47 -14,67c28,44 50,90 50,102c0,12 10,38 21,58c27,46 22,118 -11,165c-57,79 -229,107 -353,56c-144,-60 -277,-175 -359,-312c-51,-86 -107,-147 -151,-163c-47,-18 -57,-14 -57,22c0,44 36,118 113,230c72,106 84,137 66,179c-22,53 -115,76 -178,44c-38,-20 -132,-123 -157,-173l-20,-42l0,47c0,28 -9,64 -22,88c-97,188 -460,69 -593,-193c-19,-37 -50,-88 -69,-114c-36,-48 -100,-107 -100,-92c0,4 16,46 35,93c42,102 44,155 11,226c-34,73 -74,98 -161,102c-89,5 -136,-8 -212,-57c-58,-37 -60,-38 -69,-17c-5,11 -26,29 -47,40c-49,23 -108,16 -169,-23c-44,-28 -45,-31 -50,-88c-3,-33 -13,-74 -22,-91c-34,-66 -185,-207 -202,-189c-7,6 25,67 65,127c17,25 31,58 31,74c0,16 8,38 17,48c10,11 18,41 21,76c3,47 0,63 -20,92c-68,103 -260,121 -419,40c-115,-59 -249,-191 -313,-309c-35,-63 -120,-160 -131,-149c-3,2 11,41 31,86c42,98 48,176 16,238c-40,79 -87,104 -190,104c-69,0 -137,-24 -202,-70c-35,-25 -47,-25 -55,-1c-18,56 -141,63 -212,12c-34,-25 -40,-34 -50,-93c-6,-36 -19,-82 -28,-103c-25,-51 -113,-145 -152,-162c-51,-21 -63,-17 -63,20c0,44 36,118 113,230c72,106 84,137 66,179c-22,53 -115,76 -178,44c-48,-25 -134,-129 -173,-207c-112,-232 -102,-383 30,-441c59,-27 174,-22 246,10c46,21 52,21 90,8c23,-8 60,-17 84,-19l42,-5l86,115c47,63 104,135 127,160c71,77 167,128 167,88c0,-8 -12,-49 -26,-92c-43,-131 -24,-205 66,-251c55,-28 143,-29 219,-3l54,19l44,-34c50,-38 93,-49 168,-41c57,6 115,31 164,72l31,27l35,-31c19,-16 51,-33 70,-37c64,-12 158,0 213,27c49,24 52,25 84,9c18,-10 56,-20 84,-23l51,-6l74,102c119,165 234,277 284,277c26,0 26,-4 -16,-142c-19,-66 -21,-82 -11,-115c15,-50 64,-100 110,-113c83,-23 212,-1 262,45c17,15 21,13 68,-34c38,-38 63,-54 108,-67c116,-33 262,-4 386,79l52,35l32,-28c18,-15 49,-33 70,-40c56,-19 169,-8 236,22l56,26l28,-29c41,-43 102,-63 177,-57c67,6 110,23 169,70l37,29l21,-21c34,-34 88,-52 156,-51c69,0 124,19 200,67l51,32l28,-35c89,-112 287,-93 420,41c53,52 175,229 175,252c0,6 -33,25 -72,43c-82,36 -70,42 -128,-61c-44,-77 -130,-168 -160,-168c-21,0 -22,3 -18,78l4,77l120,120c165,165 282,341 348,523c40,112 31,203 -25,263c-38,41 -109,41 -165,0zm-3464,-723c0,-40 -224,-293 -292,-329c-50,-27 6,111 86,213c52,65 101,105 153,124c51,18 53,17 53,-8zm2660,1c0,-44 -272,-339 -313,-339c-13,0 4,52 41,124c57,109 152,203 230,226c40,12 42,12 42,-11zm-1140,-23c0,-2 -8,-10 -17,-17c-16,-13 -17,-12 -4,4c13,16 21,21 21,13zm10,-139c38,-26 110,-22 154,8c20,13 36,21 36,16c0,-4 -17,-34 -38,-67c-54,-82 -127,-135 -219,-159c-67,-18 -101,-11 -114,22c-16,43 19,150 74,225l21,28l30,-28c17,-16 42,-36 56,-45z"/>
   <path id="svg_5" d="m3320,1360c-95,-19 -160,-74 -160,-136c0,-49 14,-71 60,-94c54,-28 115,-26 178,6c158,79 96,259 -78,224z"/>
   <path id="svg_6" d="m6820,1360c-95,-19 -160,-74 -160,-136c0,-49 14,-71 60,-94c54,-28 115,-26 178,6c158,79 96,259 -78,224z"/>
  </g>
  <g stroke="null">
   <g stroke="null">
    <path stroke="null" fill="url(#svg_12)" d="m197.61035,16.86107l0,82.14774l-97.11092,0l0,-98.00881l81.0561,0c1.97159,0 3.88079,0.34032 5.63306,1.02058c4.35005,1.60781 7.79259,5.0091 9.38869,9.27516c0.65758,1.73146 1.03307,3.6172 1.03307,5.56533z"/>
    <path stroke="null" fill="url(#svg_11)" d="m100.49943,1l0,98.00881l-97.11092,0l0,-82.14774c0,-8.74995 7.19817,-15.86107 16.05483,-15.86107l81.0561,0z"/>
    <path stroke="null" fill="url(#svg_10)" d="m197.61151,99.00383l0,82.14008c0,8.76755 -7.18809,15.85609 -16.05018,15.85609l-81.0685,0l0,-97.99617l97.11867,0z"/>
    <path stroke="null" fill="url(#svg_9)" d="m100.49943,99.0088l0,97.97703l-81.0561,0c-2.22191,0 -4.31867,-0.43334 -6.22787,-1.23648c-3.88079,-1.60781 -6.97884,-4.69941 -8.60633,-8.50227c-0.78236,-1.8865 -1.22062,-3.92651 -1.22062,-6.0917l0,-82.14659l97.11092,0z"/>
    <polygon stroke="null" fill="#FFFFFF" points="56.147926330566406,46.119049072265625 56.147926330566406,33.929527282714844 47.741947174072266,33.929527282714844 47.741947174072266,46.119049072265625 35.12033462524414,46.119049072265625 35.12033462524414,53.80515670776367 47.741947174072266,53.80515670776367 47.741947174072266,66.09534454345703 56.147926330566406,66.09534454345703 56.147926330566406,53.80515670776367 68.77069854736328,53.80515670776367 68.77069854736328,46.119049072265625 "/>
    <rect stroke="null" fill="#FFFFFF" height="8.31545" width="25.48382" y="45.85414" x="136.31085"/>
    <polygon stroke="null" fill="#FFFFFF" points="66.96495819091797,138.63258361816406 61.780609130859375,133.69200134277344 51.94473648071289,143.06784057617188 42.11042022705078,133.69200134277344 36.92608642578125,138.63258361816406 46.76079177856445,148.00804138183594 36.92608642578125,157.38121032714844 42.11042022705078,162.32406616210938 51.94473648071289,152.94862365722656 61.780609130859375,162.32406616210938 66.96495819091797,157.38121032714844 57.12908172607422,148.00804138183594 "/>
    <path stroke="null" fill="url(#svg_8)" opacity="0.4" d="m134.61205,151.93876l0,5.37966l28.88605,0l0,-5.37966l-28.88605,0zm0,-13.23268l0,5.37966l28.88605,0l0,-5.37966l-28.88605,0z"/>
    <rect stroke="null" y="1" fill="#4D4C4C" height="195.98546" width="2.50363" x="99.24742"/>
    <rect stroke="null" x="3.3885" fill="#4D4C4C" height="2.47373" width="194.22184" y="97.77155"/>
    <path stroke="null" fill="#FFFFFF" d="m133.8607,151.47517l0,5.34866l28.91744,0l0,-5.34866l-28.91744,0zm0,-13.23268l0,5.37966l28.91744,0l0,-5.37966l-28.91744,0z"/>
    <polygon stroke="null" fill="#979696" points="55.41362380981445,45.652400970458984 55.41362380981445,33.4628791809082 47.00761795043945,33.4628791809082 47.00761795043945,45.652400970458984 34.38603210449219,45.652400970458984 34.38603210449219,53.338890075683594 47.00761795043945,53.338890075683594 47.00761795043945,65.62908935546875 55.41362380981445,65.62908935546875 55.41362380981445,53.338890075683594 68.03636932373047,53.338890075683594 68.03636932373047,45.652400970458984 "/>
    <rect stroke="null" fill="#979696" height="8.31545" width="25.48382" y="45.38787" x="135.57654"/>
    <polygon stroke="null" fill="#979696" points="66.23062896728516,138.1663055419922 61.04630661010742,133.22573852539062 51.21043395996094,142.60157775878906 41.37611770629883,133.22573852539062 36.192169189453125,138.1663055419922 46.02647399902344,147.54177856445312 36.192169189453125,156.91494750976562 41.37611770629883,161.85781860351562 51.21043395996094,152.48236083984375 61.04630661010742,161.85781860351562 66.23062896728516,156.91494750976562 56.394779205322266,147.54177856445312 "/>
   </g>
  </g>
 </g>
</svg>